{"asset":{"version":"2.0","generator":"Blockbench 4.9.4 glTF exporter"},"scenes":[{"nodes":[12],"name":"blockbench_export"}],"scene":0,"nodes":[{"translation":[-0.5,-0.67797875,-1.031249375],"name":"9mm3"},{"translation":[0,-0.46875,0.15625],"name":"mb","children":[0]},{"translation":[-0.5,-0.67797875,-1.046874375],"name":"9mm4"},{"translation":[0,-0.46875,0.171875],"name":"mb2","children":[2]},{"translation":[-0.03125,0.484375,-0.828125],"name":"slide"},{"translation":[0,0.125,0],"name":"B93R","children":[1,3,4]},{"translation":[0.375,-0.6875,0],"name":"RightHand"},{"translation":[-0.375,0.9375,-0.375],"name":"R","children":[6]},{"translation":[0,0,0.125],"name":"bone","children":[5,7]},{"translation":[-0.375,-0.6875,0],"name":"LeftHand"},{"translation":[0.375,0.9375,-0.25],"name":"l","children":[9]},{"translation":[0.5,0.25,0.75],"name":"bone2","children":[8,10]},{"children":[11]}],"animations":[{"name":"reload_empty","samplers":[{"input":0,"output":1,"interpolation":"LINEAR"},{"input":2,"output":3,"interpolation":"LINEAR"},{"input":4,"output":5,"interpolation":"LINEAR"},{"input":6,"output":7,"interpolation":"LINEAR"},{"input":8,"output":9,"interpolation":"LINEAR"},{"input":10,"output":11,"interpolation":"LINEAR"},{"input":12,"output":13,"interpolation":"LINEAR"},{"input":14,"output":15,"interpolation":"LINEAR"},{"input":16,"output":17,"interpolation":"LINEAR"},{"input":18,"output":19,"interpolation":"LINEAR"},{"input":20,"output":21,"interpolation":"LINEAR"},{"input":22,"output":23,"interpolation":"LINEAR"},{"input":24,"output":25,"interpolation":"LINEAR"},{"input":26,"output":27,"interpolation":"LINEAR"},{"input":28,"output":29,"interpolation":"LINEAR"},{"input":30,"output":31,"interpolation":"LINEAR"}],"channels":[{"sampler":0,"target":{"node":7,"path":"rotation"}},{"sampler":1,"target":{"node":7,"path":"translation"}},{"sampler":2,"target":{"node":7,"path":"scale"}},{"sampler":3,"target":{"node":10,"path":"rotation"}},{"sampler":4,"target":{"node":10,"path":"translation"}},{"sampler":5,"target":{"node":10,"path":"scale"}},{"sampler":6,"target":{"node":3,"path":"rotation"}},{"sampler":7,"target":{"node":3,"path":"translation"}},{"sampler":8,"target":{"node":11,"path":"rotation"}},{"sampler":9,"target":{"node":11,"path":"translation"}},{"sampler":10,"target":{"node":8,"path":"rotation"}},{"sampler":11,"target":{"node":8,"path":"translation"}},{"sampler":12,"target":{"node":1,"path":"rotation"}},{"sampler":13,"target":{"node":1,"path":"translation"}},{"sampler":14,"target":{"node":4,"path":"translation"}},{"sampler":15,"target":{"node":0,"path":"translation"}}]}],"bufferViews":[{"buffer":0,"byteOffset":0,"byteLength":4},{"buffer":0,"byteOffset":4,"byteLength":16},{"buffer":0,"byteOffset":20,"byteLength":4},{"buffer":0,"byteOffset":24,"byteLength":12},{"buffer":0,"byteOffset":36,"byteLength":4},{"buffer":0,"byteOffset":40,"byteLength":12},{"buffer":0,"byteOffset":52,"byteLength":140},{"buffer":0,"byteOffset":192,"byteLength":560},{"buffer":0,"byteOffset":752,"byteLength":152},{"buffer":0,"byteOffset":904,"byteLength":456},{"buffer":0,"byteOffset":1360,"byteLength":4},{"buffer":0,"byteOffset":1364,"byteLength":12},{"buffer":0,"byteOffset":1376,"byteLength":24},{"buffer":0,"byteOffset":1400,"byteLength":96},{"buffer":0,"byteOffset":1496,"byteLength":24},{"buffer":0,"byteOffset":1520,"byteLength":72},{"buffer":0,"byteOffset":1592,"byteLength":160},{"buffer":0,"byteOffset":1752,"byteLength":640},{"buffer":0,"byteOffset":2392,"byteLength":148},{"buffer":0,"byteOffset":2540,"byteLength":444},{"buffer":0,"byteOffset":2984,"byteLength":156},{"buffer":0,"byteOffset":3140,"byteLength":624},{"buffer":0,"byteOffset":3764,"byteLength":156},{"buffer":0,"byteOffset":3920,"byteLength":468},{"buffer":0,"byteOffset":4388,"byteLength":80},{"buffer":0,"byteOffset":4468,"byteLength":320},{"buffer":0,"byteOffset":4788,"byteLength":84},{"buffer":0,"byteOffset":4872,"byteLength":252},{"buffer":0,"byteOffset":5124,"byteLength":28},{"buffer":0,"byteOffset":5152,"byteLength":84},{"buffer":0,"byteOffset":5236,"byteLength":4},{"buffer":0,"byteOffset":5240,"byteLength":12}],"buffers":[{"byteLength":5252,"uri":"data:application/octet-stream;base64,"}],"accessors":[{"bufferView":0,"componentType":5126,"count":1,"max":[0],"min":[0],"type":"SCALAR"},{"bufferView":1,"componentType":5126,"count":1,"max":[-4.6036909045206166e-17,0.751839816570282,-0.659345805644989,4.037328610911684e-17],"min":[-4.6036909045206166e-17,0.751839816570282,-0.659345805644989,4.037328610911684e-17],"type":"VEC4"},{"bufferView":2,"componentType":5126,"count":1,"max":[0],"min":[0],"type":"SCALAR"},{"bufferView":3,"componentType":5126,"count":1,"max":[0.0625,0.05000000074505806,-0.21250000596046448],"min":[0.0625,0.05000000074505806,-0.21250000596046448],"type":"VEC3"},{"bufferView":4,"componentType":5126,"count":1,"max":[0],"min":[0],"type":"SCALAR"},{"bufferView":5,"componentType":5126,"count":1,"max":[1.75,2,1.75],"min":[1.75,2,1.75],"type":"VEC3"},{"bufferView":6,"componentType":5126,"count":35,"max":[2.1500000953674316],"min":[0],"type":"SCALAR"},{"bufferView":7,"componentType":5126,"count":35,"max":[0.7442409992218018,0.8809950351715088,0.4145054221153259,0.9798126220703125],"min":[-0.36630406975746155,0.0005204168846830726,-0.6353155970573425,-0.3512222170829773],"type":"VEC4"},{"bufferView":8,"componentType":5126,"count":38,"max":[2.1500000953674316],"min":[0],"type":"SCALAR"},{"bufferView":9,"componentType":5126,"count":38,"max":[1.4031250476837158,0.590624988079071,0.9375],"min":[-2.0875000953674316,-5.0625,-0.6312500238418579],"type":"VEC3"},{"bufferView":10,"componentType":5126,"count":1,"max":[0],"min":[0],"type":"SCALAR"},{"bufferView":11,"componentType":5126,"count":1,"max":[1.75,2,1.75],"min":[1.75,2,1.75],"type":"VEC3"},{"bufferView":12,"componentType":5126,"count":6,"max":[0.8999999761581421],"min":[0],"type":"SCALAR"},{"bufferView":13,"componentType":5126,"count":6,"max":[0,0,0.2798290252685547,1],"min":[0,0,0,0.9600498676300049],"type":"VEC4"},{"bufferView":14,"componentType":5126,"count":6,"max":[0.8999999761581421],"min":[0],"type":"SCALAR"},{"bufferView":15,"componentType":5126,"count":6,"max":[1.0750000476837158,-0.46875,1.0656249523162842],"min":[0,-2.981250047683716,0.171875],"type":"VEC3"},{"bufferView":16,"componentType":5126,"count":40,"max":[2.3499999046325684],"min":[0],"type":"SCALAR"},{"bufferView":17,"componentType":5126,"count":40,"max":[0.3819561004638672,0.37103015184402466,0.10328923165798187,1],"min":[0,-0.001863787299953401,-0.5105777382850647,0.7611646056175232],"type":"VEC4"},{"bufferView":18,"componentType":5126,"count":37,"max":[2.299999952316284],"min":[0],"type":"SCALAR"},{"bufferView":19,"componentType":5126,"count":37,"max":[0.699999988079071,0.543749988079071,0.8709474802017212],"min":[0.5,0.12301749736070633,0.6953125],"type":"VEC3"},{"bufferView":20,"componentType":5126,"count":39,"max":[2.25],"min":[0],"type":"SCALAR"},{"bufferView":21,"componentType":5126,"count":39,"max":[0.05217374861240387,0.00932226236909628,0.017897728830575943,1],"min":[-0.013047774322330952,-0.00015231869474519044,-0.008726527914404869,0.9984341263771057],"type":"VEC4"},{"bufferView":22,"componentType":5126,"count":39,"max":[2.25],"min":[0],"type":"SCALAR"},{"bufferView":23,"componentType":5126,"count":39,"max":[0.01875000074505806,0.0018515529809519649,0.13367915153503418],"min":[-0.0013886647066101432,-0.02500000037252903,0.0078125],"type":"VEC3"},{"bufferView":24,"componentType":5126,"count":20,"max":[1.149999976158142],"min":[0],"type":"SCALAR"},{"bufferView":25,"componentType":5126,"count":20,"max":[0.0503845252096653,0.03232227638363838,0.08957064896821976,1],"min":[-0.27981069684028625,-0.1025439202785492,-0.17448320984840393,0.9557397365570068],"type":"VEC4"},{"bufferView":26,"componentType":5126,"count":21,"max":[1.149999976158142],"min":[0],"type":"SCALAR"},{"bufferView":27,"componentType":5126,"count":21,"max":[0.012149810791015625,-0.46875,0.760149359703064],"min":[-0.3375000059604645,-2.1392483711242676,0.125],"type":"VEC3"},{"bufferView":28,"componentType":5126,"count":7,"max":[1.850000023841858],"min":[0],"type":"SCALAR"},{"bufferView":29,"componentType":5126,"count":7,"max":[-0.01875000074505806,0.484375,-0.6156250238418579],"min":[-0.03750000149011612,0.484375,-0.828125],"type":"VEC3"},{"bufferView":30,"componentType":5126,"count":1,"max":[0],"min":[0],"type":"SCALAR"},{"bufferView":31,"componentType":5126,"count":1,"max":[-0.5,-0.6154787540435791,-1.0312494039535522],"min":[-0.5,-0.6154787540435791,-1.0312494039535522],"type":"VEC3"}]}