{"asset":{"version":"2.0","generator":"Blockbench 4.9.4 glTF exporter"},"scenes":[{"nodes":[12],"name":"blockbench_export"}],"scene":0,"nodes":[{"translation":[-0.5,-0.67797875,-1.031249375],"name":"9mm3"},{"translation":[0,-0.46875,0.15625],"name":"mb","children":[0]},{"translation":[-0.5,-0.67797875,-1.046874375],"name":"9mm4"},{"translation":[0,-0.46875,0.171875],"name":"mb2","children":[2]},{"translation":[-0.03125,0.484375,-0.828125],"name":"slide"},{"translation":[0,0.125,0],"name":"B93R","children":[1,3,4]},{"translation":[0.375,-0.6875,0],"name":"RightHand"},{"translation":[-0.375,0.9375,-0.375],"name":"R","children":[6]},{"translation":[0,0,0.125],"name":"bone","children":[5,7]},{"translation":[-0.375,-0.6875,0],"name":"LeftHand"},{"translation":[0.375,0.9375,-0.25],"name":"l","children":[9]},{"translation":[0.5,0.25,0.75],"name":"bone2","children":[8,10]},{"children":[11]}],"animations":[{"name":"static_state","samplers":[{"input":0,"output":1,"interpolation":"LINEAR"},{"input":2,"output":3,"interpolation":"LINEAR"},{"input":4,"output":5,"interpolation":"LINEAR"},{"input":6,"output":7,"interpolation":"LINEAR"},{"input":8,"output":9,"interpolation":"LINEAR"},{"input":10,"output":11,"interpolation":"LINEAR"},{"input":12,"output":13,"interpolation":"LINEAR"},{"input":14,"output":15,"interpolation":"LINEAR"}],"channels":[{"sampler":0,"target":{"node":7,"path":"rotation"}},{"sampler":1,"target":{"node":7,"path":"translation"}},{"sampler":2,"target":{"node":7,"path":"scale"}},{"sampler":3,"target":{"node":10,"path":"rotation"}},{"sampler":4,"target":{"node":10,"path":"translation"}},{"sampler":5,"target":{"node":10,"path":"scale"}},{"sampler":6,"target":{"node":3,"path":"translation"}},{"sampler":7,"target":{"node":2,"path":"translation"}}]}],"bufferViews":[{"buffer":0,"byteOffset":0,"byteLength":4},{"buffer":0,"byteOffset":4,"byteLength":16},{"buffer":0,"byteOffset":20,"byteLength":4},{"buffer":0,"byteOffset":24,"byteLength":12},{"buffer":0,"byteOffset":36,"byteLength":4},{"buffer":0,"byteOffset":40,"byteLength":12},{"buffer":0,"byteOffset":52,"byteLength":4},{"buffer":0,"byteOffset":56,"byteLength":16},{"buffer":0,"byteOffset":72,"byteLength":4},{"buffer":0,"byteOffset":76,"byteLength":12},{"buffer":0,"byteOffset":88,"byteLength":4},{"buffer":0,"byteOffset":92,"byteLength":12},{"buffer":0,"byteOffset":104,"byteLength":4},{"buffer":0,"byteOffset":108,"byteLength":12},{"buffer":0,"byteOffset":120,"byteLength":4},{"buffer":0,"byteOffset":124,"byteLength":12}],"buffers":[{"byteLength":136,"uri":"data:application/octet-stream;base64,"}],"accessors":[{"bufferView":0,"componentType":5126,"count":1,"max":[0],"min":[0],"type":"SCALAR"},{"bufferView":1,"componentType":5126,"count":1,"max":[-4.6036909045206166e-17,0.751839816570282,-0.659345805644989,4.037328610911684e-17],"min":[-4.6036909045206166e-17,0.751839816570282,-0.659345805644989,4.037328610911684e-17],"type":"VEC4"},{"bufferView":2,"componentType":5126,"count":1,"max":[0],"min":[0],"type":"SCALAR"},{"bufferView":3,"componentType":5126,"count":1,"max":[0.0625,0.05000000074505806,-0.21250000596046448],"min":[0.0625,0.05000000074505806,-0.21250000596046448],"type":"VEC3"},{"bufferView":4,"componentType":5126,"count":1,"max":[0],"min":[0],"type":"SCALAR"},{"bufferView":5,"componentType":5126,"count":1,"max":[1.75,2,1.75],"min":[1.75,2,1.75],"type":"VEC3"},{"bufferView":6,"componentType":5126,"count":1,"max":[0],"min":[0],"type":"SCALAR"},{"bufferView":7,"componentType":5126,"count":1,"max":[0.29313719272613525,0.8613573312759399,-0.40565741062164307,-0.08704151958227158],"min":[0.29313719272613525,0.8613573312759399,-0.40565741062164307,-0.08704151958227158],"type":"VEC4"},{"bufferView":8,"componentType":5126,"count":1,"max":[0],"min":[0],"type":"SCALAR"},{"bufferView":9,"componentType":5126,"count":1,"max":[-0.08749999850988388,0.125,-0.6312500238418579],"min":[-0.08749999850988388,0.125,-0.6312500238418579],"type":"VEC3"},{"bufferView":10,"componentType":5126,"count":1,"max":[0],"min":[0],"type":"SCALAR"},{"bufferView":11,"componentType":5126,"count":1,"max":[1.75,2,1.75],"min":[1.75,2,1.75],"type":"VEC3"},{"bufferView":12,"componentType":5126,"count":1,"max":[0],"min":[0],"type":"SCALAR"},{"bufferView":13,"componentType":5126,"count":1,"max":[0,-0.46875,0.171875],"min":[0,-0.46875,0.171875],"type":"VEC3"},{"bufferView":14,"componentType":5126,"count":1,"max":[0],"min":[0],"type":"SCALAR"},{"bufferView":15,"componentType":5126,"count":1,"max":[-0.5,-0.6779787540435791,-1.0468744039535522],"min":[-0.5,-0.6779787540435791,-1.0468744039535522],"type":"VEC3"}]}