{"asset":{"version":"2.0","generator":"Blockbench 4.9.4 glTF exporter"},"scenes":[{"nodes":[12],"name":"blockbench_export"}],"scene":0,"nodes":[{"translation":[-0.5,-0.67797875,-1.031249375],"name":"9mm3"},{"translation":[0,-0.46875,0.15625],"name":"mb","children":[0]},{"translation":[-0.5,-0.67797875,-1.046874375],"name":"9mm4"},{"translation":[0,-0.46875,0.171875],"name":"mb2","children":[2]},{"translation":[-0.03125,0.484375,-0.828125],"name":"slide"},{"translation":[0,0.125,0],"name":"B93R","children":[1,3,4]},{"translation":[0.375,-0.6875,0],"name":"RightHand"},{"translation":[-0.375,0.9375,-0.375],"name":"R","children":[6]},{"translation":[0,0,0.125],"name":"bone","children":[5,7]},{"translation":[-0.375,-0.6875,0],"name":"LeftHand"},{"translation":[0.375,0.9375,-0.25],"name":"l","children":[9]},{"translation":[0.5,0.25,0.75],"name":"bone2","children":[8,10]},{"children":[11]}],"animations":[{"name":"inspect","samplers":[{"input":0,"output":1,"interpolation":"LINEAR"},{"input":2,"output":3,"interpolation":"LINEAR"},{"input":4,"output":5,"interpolation":"LINEAR"},{"input":6,"output":7,"interpolation":"LINEAR"},{"input":8,"output":9,"interpolation":"LINEAR"},{"input":10,"output":11,"interpolation":"LINEAR"},{"input":12,"output":13,"interpolation":"LINEAR"},{"input":14,"output":15,"interpolation":"LINEAR"},{"input":16,"output":17,"interpolation":"LINEAR"},{"input":18,"output":19,"interpolation":"LINEAR"},{"input":20,"output":21,"interpolation":"LINEAR"},{"input":22,"output":23,"interpolation":"LINEAR"},{"input":24,"output":25,"interpolation":"LINEAR"}],"channels":[{"sampler":0,"target":{"node":7,"path":"rotation"}},{"sampler":1,"target":{"node":7,"path":"translation"}},{"sampler":2,"target":{"node":7,"path":"scale"}},{"sampler":3,"target":{"node":10,"path":"rotation"}},{"sampler":4,"target":{"node":10,"path":"translation"}},{"sampler":5,"target":{"node":10,"path":"scale"}},{"sampler":6,"target":{"node":3,"path":"translation"}},{"sampler":7,"target":{"node":2,"path":"translation"}},{"sampler":8,"target":{"node":8,"path":"rotation"}},{"sampler":9,"target":{"node":8,"path":"translation"}},{"sampler":10,"target":{"node":11,"path":"rotation"}},{"sampler":11,"target":{"node":11,"path":"translation"}},{"sampler":12,"target":{"node":5,"path":"translation"}}]}],"bufferViews":[{"buffer":0,"byteOffset":0,"byteLength":4},{"buffer":0,"byteOffset":4,"byteLength":16},{"buffer":0,"byteOffset":20,"byteLength":4},{"buffer":0,"byteOffset":24,"byteLength":12},{"buffer":0,"byteOffset":36,"byteLength":4},{"buffer":0,"byteOffset":40,"byteLength":12},{"buffer":0,"byteOffset":52,"byteLength":404},{"buffer":0,"byteOffset":456,"byteLength":1616},{"buffer":0,"byteOffset":2072,"byteLength":404},{"buffer":0,"byteOffset":2476,"byteLength":1212},{"buffer":0,"byteOffset":3688,"byteLength":4},{"buffer":0,"byteOffset":3692,"byteLength":12},{"buffer":0,"byteOffset":3704,"byteLength":4},{"buffer":0,"byteOffset":3708,"byteLength":12},{"buffer":0,"byteOffset":3720,"byteLength":4},{"buffer":0,"byteOffset":3724,"byteLength":12},{"buffer":0,"byteOffset":3736,"byteLength":404},{"buffer":0,"byteOffset":4140,"byteLength":1616},{"buffer":0,"byteOffset":5756,"byteLength":396},{"buffer":0,"byteOffset":6152,"byteLength":1188},{"buffer":0,"byteOffset":7340,"byteLength":64},{"buffer":0,"byteOffset":7404,"byteLength":256},{"buffer":0,"byteOffset":7660,"byteLength":72},{"buffer":0,"byteOffset":7732,"byteLength":216},{"buffer":0,"byteOffset":7948,"byteLength":16},{"buffer":0,"byteOffset":7964,"byteLength":48}],"buffers":[{"byteLength":8012,"uri":"data:application/octet-stream;base64,"}],"accessors":[{"bufferView":0,"componentType":5126,"count":1,"max":[0],"min":[0],"type":"SCALAR"},{"bufferView":1,"componentType":5126,"count":1,"max":[-4.6036909045206166e-17,0.751839816570282,-0.659345805644989,4.037328610911684e-17],"min":[-4.6036909045206166e-17,0.751839816570282,-0.659345805644989,4.037328610911684e-17],"type":"VEC4"},{"bufferView":2,"componentType":5126,"count":1,"max":[0],"min":[0],"type":"SCALAR"},{"bufferView":3,"componentType":5126,"count":1,"max":[0.0625,0.05000000074505806,-0.21250000596046448],"min":[0.0625,0.05000000074505806,-0.21250000596046448],"type":"VEC3"},{"bufferView":4,"componentType":5126,"count":1,"max":[0],"min":[0],"type":"SCALAR"},{"bufferView":5,"componentType":5126,"count":1,"max":[1.75,2,1.75],"min":[1.75,2,1.75],"type":"VEC3"},{"bufferView":6,"componentType":5126,"count":101,"max":[5.75],"min":[0],"type":"SCALAR"},{"bufferView":7,"componentType":5126,"count":101,"max":[0.5802103281021118,0.8613573312759399,-0.12615938484668732,-0.08085738867521286],"min":[0.29313719272613525,0.7492530941963196,-0.40565741062164307,-0.2867104113101959],"type":"VEC4"},{"bufferView":8,"componentType":5126,"count":101,"max":[5.75],"min":[0],"type":"SCALAR"},{"bufferView":9,"componentType":5126,"count":101,"max":[-0.08749999850988388,0.125,-0.6113482117652893],"min":[-1.3561549186706543,-1.6793516874313354,-0.8999999761581421],"type":"VEC3"},{"bufferView":10,"componentType":5126,"count":1,"max":[0],"min":[0],"type":"SCALAR"},{"bufferView":11,"componentType":5126,"count":1,"max":[1.75,2,1.75],"min":[1.75,2,1.75],"type":"VEC3"},{"bufferView":12,"componentType":5126,"count":1,"max":[0],"min":[0],"type":"SCALAR"},{"bufferView":13,"componentType":5126,"count":1,"max":[0,-0.46875,0.171875],"min":[0,-0.46875,0.171875],"type":"VEC3"},{"bufferView":14,"componentType":5126,"count":1,"max":[0],"min":[0],"type":"SCALAR"},{"bufferView":15,"componentType":5126,"count":1,"max":[-0.5,-0.6779787540435791,-1.0468744039535522],"min":[-0.5,-0.6779787540435791,-1.0468744039535522],"type":"VEC3"},{"bufferView":16,"componentType":5126,"count":101,"max":[5.75],"min":[0],"type":"SCALAR"},{"bufferView":17,"componentType":5126,"count":101,"max":[0.3419862687587738,0.3003515899181366,0.4825722575187683,1],"min":[0,-0.09357447177171707,-0.2791551947593689,0.8040487766265869],"type":"VEC4"},{"bufferView":18,"componentType":5126,"count":99,"max":[5.75],"min":[0],"type":"SCALAR"},{"bufferView":19,"componentType":5126,"count":99,"max":[0.26337963342666626,0.23530367016792297,0.125],"min":[-0.0011664496269077063,-0.016021728515625,0.125],"type":"VEC3"},{"bufferView":20,"componentType":5126,"count":16,"max":[6.25],"min":[0],"type":"SCALAR"},{"bufferView":21,"componentType":5126,"count":16,"max":[0.0003045599441975355,0.025213614106178284,0.0012391763739287853,1],"min":[-0.01939021609723568,-0.0018112591933459044,-0.01666158065199852,0.999355137348175],"type":"VEC4"},{"bufferView":22,"componentType":5126,"count":18,"max":[6.300000190734863],"min":[0],"type":"SCALAR"},{"bufferView":23,"componentType":5126,"count":18,"max":[0.5062500238418579,0.2534893751144409,0.793749988079071],"min":[0.49972832202911377,0.1875,0.6875],"type":"VEC3"},{"bufferView":24,"componentType":5126,"count":4,"max":[2.700000047683716],"min":[0.20000000298023224],"type":"SCALAR"},{"bufferView":25,"componentType":5126,"count":4,"max":[0,0.125,0],"min":[-0.15625,0.125,0],"type":"VEC3"}]}