{"asset":{"version":"2.0","generator":"Blockbench 4.9.4 glTF exporter"},"scenes":[{"nodes":[12],"name":"blockbench_export"}],"scene":0,"nodes":[{"translation":[-0.5,-0.67797875,-1.031249375],"name":"9mm3"},{"translation":[0,-0.46875,0.15625],"name":"mb","children":[0]},{"translation":[-0.5,-0.67797875,-1.046874375],"name":"9mm4"},{"translation":[0,-0.46875,0.171875],"name":"mb2","children":[2]},{"translation":[-0.03125,0.484375,-0.828125],"name":"slide"},{"translation":[0,0.125,0],"name":"B93R","children":[1,3,4]},{"translation":[0.375,-0.6875,0],"name":"RightHand"},{"translation":[-0.375,0.9375,-0.375],"name":"R","children":[6]},{"translation":[0,0,0.125],"name":"bone","children":[5,7]},{"translation":[-0.375,-0.6875,0],"name":"LeftHand"},{"translation":[0.375,0.9375,-0.25],"name":"l","children":[9]},{"translation":[0.5,0.25,0.75],"name":"bone2","children":[8,10]},{"children":[11]}],"animations":[{"name":"reload_norm","samplers":[{"input":0,"output":1,"interpolation":"LINEAR"},{"input":2,"output":3,"interpolation":"LINEAR"},{"input":4,"output":5,"interpolation":"LINEAR"},{"input":6,"output":7,"interpolation":"LINEAR"},{"input":8,"output":9,"interpolation":"LINEAR"},{"input":10,"output":11,"interpolation":"LINEAR"},{"input":12,"output":13,"interpolation":"STEP"},{"input":14,"output":15,"interpolation":"LINEAR"},{"input":16,"output":17,"interpolation":"LINEAR"},{"input":18,"output":19,"interpolation":"LINEAR"},{"input":20,"output":21,"interpolation":"LINEAR"},{"input":22,"output":23,"interpolation":"LINEAR"},{"input":24,"output":25,"interpolation":"LINEAR"},{"input":26,"output":27,"interpolation":"STEP"},{"input":28,"output":29,"interpolation":"LINEAR"},{"input":30,"output":31,"interpolation":"LINEAR"}],"channels":[{"sampler":0,"target":{"node":7,"path":"rotation"}},{"sampler":1,"target":{"node":7,"path":"translation"}},{"sampler":2,"target":{"node":7,"path":"scale"}},{"sampler":3,"target":{"node":10,"path":"rotation"}},{"sampler":4,"target":{"node":10,"path":"translation"}},{"sampler":5,"target":{"node":10,"path":"scale"}},{"sampler":6,"target":{"node":3,"path":"rotation"}},{"sampler":7,"target":{"node":3,"path":"translation"}},{"sampler":8,"target":{"node":2,"path":"translation"}},{"sampler":9,"target":{"node":11,"path":"rotation"}},{"sampler":10,"target":{"node":11,"path":"translation"}},{"sampler":11,"target":{"node":8,"path":"rotation"}},{"sampler":12,"target":{"node":8,"path":"translation"}},{"sampler":13,"target":{"node":1,"path":"rotation"}},{"sampler":14,"target":{"node":1,"path":"translation"}},{"sampler":15,"target":{"node":0,"path":"translation"}}]}],"bufferViews":[{"buffer":0,"byteOffset":0,"byteLength":4},{"buffer":0,"byteOffset":4,"byteLength":16},{"buffer":0,"byteOffset":20,"byteLength":4},{"buffer":0,"byteOffset":24,"byteLength":12},{"buffer":0,"byteOffset":36,"byteLength":4},{"buffer":0,"byteOffset":40,"byteLength":12},{"buffer":0,"byteOffset":52,"byteLength":104},{"buffer":0,"byteOffset":156,"byteLength":416},{"buffer":0,"byteOffset":572,"byteLength":108},{"buffer":0,"byteOffset":680,"byteLength":324},{"buffer":0,"byteOffset":1004,"byteLength":4},{"buffer":0,"byteOffset":1008,"byteLength":12},{"buffer":0,"byteOffset":1020,"byteLength":60},{"buffer":0,"byteOffset":1080,"byteLength":240},{"buffer":0,"byteOffset":1320,"byteLength":60},{"buffer":0,"byteOffset":1380,"byteLength":180},{"buffer":0,"byteOffset":1560,"byteLength":4},{"buffer":0,"byteOffset":1564,"byteLength":12},{"buffer":0,"byteOffset":1576,"byteLength":128},{"buffer":0,"byteOffset":1704,"byteLength":512},{"buffer":0,"byteOffset":2216,"byteLength":124},{"buffer":0,"byteOffset":2340,"byteLength":372},{"buffer":0,"byteOffset":2712,"byteLength":4},{"buffer":0,"byteOffset":2716,"byteLength":16},{"buffer":0,"byteOffset":2732,"byteLength":4},{"buffer":0,"byteOffset":2736,"byteLength":12},{"buffer":0,"byteOffset":2748,"byteLength":84},{"buffer":0,"byteOffset":2832,"byteLength":336},{"buffer":0,"byteOffset":3168,"byteLength":76},{"buffer":0,"byteOffset":3244,"byteLength":228},{"buffer":0,"byteOffset":3472,"byteLength":4},{"buffer":0,"byteOffset":3476,"byteLength":12}],"buffers":[{"byteLength":3488,"uri":"data:application/octet-stream;base64,"}],"accessors":[{"bufferView":0,"componentType":5126,"count":1,"max":[0],"min":[0],"type":"SCALAR"},{"bufferView":1,"componentType":5126,"count":1,"max":[-4.6036909045206166e-17,0.751839816570282,-0.659345805644989,4.037328610911684e-17],"min":[-4.6036909045206166e-17,0.751839816570282,-0.659345805644989,4.037328610911684e-17],"type":"VEC4"},{"bufferView":2,"componentType":5126,"count":1,"max":[0],"min":[0],"type":"SCALAR"},{"bufferView":3,"componentType":5126,"count":1,"max":[0.0625,0.05000000074505806,-0.21250000596046448],"min":[0.0625,0.05000000074505806,-0.21250000596046448],"type":"VEC3"},{"bufferView":4,"componentType":5126,"count":1,"max":[0],"min":[0],"type":"SCALAR"},{"bufferView":5,"componentType":5126,"count":1,"max":[1.75,2,1.75],"min":[1.75,2,1.75],"type":"VEC3"},{"bufferView":6,"componentType":5126,"count":26,"max":[1.649999976158142],"min":[0],"type":"SCALAR"},{"bufferView":7,"componentType":5126,"count":26,"max":[0.7442409992218018,0.8613573312759399,-0.10548428446054459,0.766250729560852],"min":[-0.3409416973590851,0.49573251605033875,-0.5153419971466064,-0.3512222170829773],"type":"VEC4"},{"bufferView":8,"componentType":5126,"count":27,"max":[1.649999976158142],"min":[0],"type":"SCALAR"},{"bufferView":9,"componentType":5126,"count":27,"max":[0.7875000238418579,0.125,0.706250011920929],"min":[-2.0875000953674316,-5.0625,-0.654931902885437],"type":"VEC3"},{"bufferView":10,"componentType":5126,"count":1,"max":[0],"min":[0],"type":"SCALAR"},{"bufferView":11,"componentType":5126,"count":1,"max":[1.75,2,1.75],"min":[1.75,2,1.75],"type":"VEC3"},{"bufferView":12,"componentType":5126,"count":15,"max":[1.5],"min":[0],"type":"SCALAR"},{"bufferView":13,"componentType":5126,"count":15,"max":[0.38195890188217163,0.043627116829156876,0,1],"min":[0,-0.04417610913515091,-0.29197007417678833,0.9109671115875244],"type":"VEC4"},{"bufferView":14,"componentType":5126,"count":15,"max":[1.5],"min":[0],"type":"SCALAR"},{"bufferView":15,"componentType":5126,"count":15,"max":[0.2438962459564209,-0.46875,0.5160156488418579],"min":[0,-2.111328125,0.171875],"type":"VEC3"},{"bufferView":16,"componentType":5126,"count":1,"max":[0],"min":[0],"type":"SCALAR"},{"bufferView":17,"componentType":5126,"count":1,"max":[-0.5,-0.6154787540435791,-1.0468744039535522],"min":[-0.5,-0.6154787540435791,-1.0468744039535522],"type":"VEC3"},{"bufferView":18,"componentType":5126,"count":32,"max":[1.9500000476837158],"min":[0],"type":"SCALAR"},{"bufferView":19,"componentType":5126,"count":32,"max":[0.2424730360507965,0.26113200187683105,0.10485494136810303,1],"min":[-0.0006021864828653634,-0.0030252032447606325,-0.36376121640205383,0.867283821105957],"type":"VEC4"},{"bufferView":20,"componentType":5126,"count":31,"max":[1.899999976158142],"min":[0],"type":"SCALAR"},{"bufferView":21,"componentType":5126,"count":31,"max":[0.6937500238418579,0.5375000238418579,0.878125011920929],"min":[0.49312904477119446,0.21718749403953552,0.7196875214576721],"type":"VEC3"},{"bufferView":22,"componentType":5126,"count":1,"max":[0],"min":[0],"type":"SCALAR"},{"bufferView":23,"componentType":5126,"count":1,"max":[0,0,0,1],"min":[0,0,0,1],"type":"VEC4"},{"bufferView":24,"componentType":5126,"count":1,"max":[0],"min":[0],"type":"SCALAR"},{"bufferView":25,"componentType":5126,"count":1,"max":[0,0,0.125],"min":[0,0,0.125],"type":"VEC3"},{"bufferView":26,"componentType":5126,"count":21,"max":[1.600000023841858],"min":[0],"type":"SCALAR"},{"bufferView":27,"componentType":5126,"count":21,"max":[0.019619883969426155,0.029017243534326553,0.08957064896821976,1],"min":[-0.27981069684028625,-0.003000090830028057,-0.047962069511413574,0.9557397365570068],"type":"VEC4"},{"bufferView":28,"componentType":5126,"count":19,"max":[1.100000023841858],"min":[0],"type":"SCALAR"},{"bufferView":29,"componentType":5126,"count":19,"max":[0.012149810791015625,-0.46875,0.760149359703064],"min":[-0.16875000298023224,-2.1448633670806885,0.125],"type":"VEC3"},{"bufferView":30,"componentType":5126,"count":1,"max":[0],"min":[0],"type":"SCALAR"},{"bufferView":31,"componentType":5126,"count":1,"max":[-0.5,-0.6154787540435791,-1.0312494039535522],"min":[-0.5,-0.6154787540435791,-1.0312494039535522],"type":"VEC3"}]}