{"asset":{"version":"2.0","generator":"Blockbench 4.9.4 glTF exporter"},"scenes":[{"nodes":[12],"name":"blockbench_export"}],"scene":0,"nodes":[{"translation":[-0.5,-0.67797875,-1.031249375],"name":"9mm3"},{"translation":[0,-0.46875,0.15625],"name":"mb","children":[0]},{"translation":[-0.5,-0.67797875,-1.046874375],"name":"9mm4"},{"translation":[0,-0.46875,0.171875],"name":"mb2","children":[2]},{"translation":[-0.03125,0.484375,-0.828125],"name":"slide"},{"translation":[0,0.125,0],"name":"B93R","children":[1,3,4]},{"translation":[0.375,-0.6875,0],"name":"RightHand"},{"translation":[-0.375,0.9375,-0.375],"name":"R","children":[6]},{"translation":[0,0,0.125],"name":"bone","children":[5,7]},{"translation":[-0.375,-0.6875,0],"name":"LeftHand"},{"translation":[0.375,0.9375,-0.25],"name":"l","children":[9]},{"translation":[0.5,0.25,0.75],"name":"bone2","children":[8,10]},{"children":[11]}],"animations":[{"name":"draw","samplers":[{"input":0,"output":1,"interpolation":"LINEAR"},{"input":2,"output":3,"interpolation":"LINEAR"},{"input":4,"output":5,"interpolation":"LINEAR"},{"input":6,"output":7,"interpolation":"LINEAR"},{"input":8,"output":9,"interpolation":"LINEAR"},{"input":10,"output":11,"interpolation":"LINEAR"},{"input":12,"output":13,"interpolation":"LINEAR"},{"input":14,"output":15,"interpolation":"LINEAR"},{"input":16,"output":17,"interpolation":"LINEAR"},{"input":18,"output":19,"interpolation":"LINEAR"},{"input":20,"output":21,"interpolation":"LINEAR"},{"input":22,"output":23,"interpolation":"LINEAR"}],"channels":[{"sampler":0,"target":{"node":7,"path":"rotation"}},{"sampler":1,"target":{"node":7,"path":"translation"}},{"sampler":2,"target":{"node":7,"path":"scale"}},{"sampler":3,"target":{"node":10,"path":"rotation"}},{"sampler":4,"target":{"node":10,"path":"translation"}},{"sampler":5,"target":{"node":10,"path":"scale"}},{"sampler":6,"target":{"node":3,"path":"translation"}},{"sampler":7,"target":{"node":2,"path":"translation"}},{"sampler":8,"target":{"node":11,"path":"rotation"}},{"sampler":9,"target":{"node":11,"path":"translation"}},{"sampler":10,"target":{"node":8,"path":"rotation"}},{"sampler":11,"target":{"node":8,"path":"translation"}}]}],"bufferViews":[{"buffer":0,"byteOffset":0,"byteLength":4},{"buffer":0,"byteOffset":4,"byteLength":16},{"buffer":0,"byteOffset":20,"byteLength":4},{"buffer":0,"byteOffset":24,"byteLength":12},{"buffer":0,"byteOffset":36,"byteLength":4},{"buffer":0,"byteOffset":40,"byteLength":12},{"buffer":0,"byteOffset":52,"byteLength":36},{"buffer":0,"byteOffset":88,"byteLength":144},{"buffer":0,"byteOffset":232,"byteLength":32},{"buffer":0,"byteOffset":264,"byteLength":96},{"buffer":0,"byteOffset":360,"byteLength":4},{"buffer":0,"byteOffset":364,"byteLength":12},{"buffer":0,"byteOffset":376,"byteLength":4},{"buffer":0,"byteOffset":380,"byteLength":12},{"buffer":0,"byteOffset":392,"byteLength":4},{"buffer":0,"byteOffset":396,"byteLength":12},{"buffer":0,"byteOffset":408,"byteLength":40},{"buffer":0,"byteOffset":448,"byteLength":160},{"buffer":0,"byteOffset":608,"byteLength":44},{"buffer":0,"byteOffset":652,"byteLength":132},{"buffer":0,"byteOffset":784,"byteLength":36},{"buffer":0,"byteOffset":820,"byteLength":144},{"buffer":0,"byteOffset":964,"byteLength":32},{"buffer":0,"byteOffset":996,"byteLength":96}],"buffers":[{"byteLength":1092,"uri":"data:application/octet-stream;base64,"}],"accessors":[{"bufferView":0,"componentType":5126,"count":1,"max":[0],"min":[0],"type":"SCALAR"},{"bufferView":1,"componentType":5126,"count":1,"max":[-4.6036909045206166e-17,0.751839816570282,-0.659345805644989,4.037328610911684e-17],"min":[-4.6036909045206166e-17,0.751839816570282,-0.659345805644989,4.037328610911684e-17],"type":"VEC4"},{"bufferView":2,"componentType":5126,"count":1,"max":[0],"min":[0],"type":"SCALAR"},{"bufferView":3,"componentType":5126,"count":1,"max":[0.0625,0.05000000074505806,-0.21250000596046448],"min":[0.0625,0.05000000074505806,-0.21250000596046448],"type":"VEC3"},{"bufferView":4,"componentType":5126,"count":1,"max":[0],"min":[0],"type":"SCALAR"},{"bufferView":5,"componentType":5126,"count":1,"max":[1.75,2,1.75],"min":[1.75,2,1.75],"type":"VEC3"},{"bufferView":6,"componentType":5126,"count":9,"max":[0.44999998807907104],"min":[0],"type":"SCALAR"},{"bufferView":7,"componentType":5126,"count":9,"max":[0.3708380162715912,0.8638872504234314,-0.355372816324234,-0.029633814468979836],"min":[0.28561148047447205,0.8403455018997192,-0.41133514046669006,-0.09058994799852371],"type":"VEC4"},{"bufferView":8,"componentType":5126,"count":8,"max":[0.4000000059604645],"min":[0],"type":"SCALAR"},{"bufferView":9,"componentType":5126,"count":8,"max":[-0.08124999701976776,0.13117283582687378,-0.5],"min":[-0.5249999761581421,-0.125,-0.6408630609512329],"type":"VEC3"},{"bufferView":10,"componentType":5126,"count":1,"max":[0],"min":[0],"type":"SCALAR"},{"bufferView":11,"componentType":5126,"count":1,"max":[1.75,2,1.75],"min":[1.75,2,1.75],"type":"VEC3"},{"bufferView":12,"componentType":5126,"count":1,"max":[0],"min":[0],"type":"SCALAR"},{"bufferView":13,"componentType":5126,"count":1,"max":[0,-0.46875,0.171875],"min":[0,-0.46875,0.171875],"type":"VEC3"},{"bufferView":14,"componentType":5126,"count":1,"max":[0],"min":[0],"type":"SCALAR"},{"bufferView":15,"componentType":5126,"count":1,"max":[-0.5,-0.6779787540435791,-1.0468744039535522],"min":[-0.5,-0.6779787540435791,-1.0468744039535522],"type":"VEC3"},{"bufferView":16,"componentType":5126,"count":10,"max":[0.6000000238418579],"min":[0],"type":"SCALAR"},{"bufferView":17,"componentType":5126,"count":10,"max":[0.006442673038691282,0.0030427577439695597,0.08707278966903687,1],"min":[-0.0434534028172493,-0.0038016801699995995,-0.011592905037105083,0.9952465295791626],"type":"VEC4"},{"bufferView":18,"componentType":5126,"count":11,"max":[0.550000011920929],"min":[0],"type":"SCALAR"},{"bufferView":19,"componentType":5126,"count":11,"max":[0.5,0.26585936546325684,2.0625],"min":[0.46875,-0.625,0.6196874976158142],"type":"VEC3"},{"bufferView":20,"componentType":5126,"count":9,"max":[0.44999998807907104],"min":[0],"type":"SCALAR"},{"bufferView":21,"componentType":5126,"count":9,"max":[0.10996914654970169,0.25021591782569885,0.29565489292144775,1],"min":[-0.012716434895992279,-0.000051427545258775353,-0.024516059085726738,0.9153616428375244],"type":"VEC4"},{"bufferView":22,"componentType":5126,"count":8,"max":[0.4000000059604645],"min":[0],"type":"SCALAR"},{"bufferView":23,"componentType":5126,"count":8,"max":[0.4375,0,0.18125000596046448],"min":[-0.0024519891012459993,0,-0.3125],"type":"VEC3"}]}