{"asset":{"version":"2.0","generator":"Blockbench 4.8.3 glTF exporter"},"scenes":[{"nodes":[10],"name":"blockbench_export"}],"scene":0,"nodes":[{"translation":[-0.00803124999999999,0.19137562500000005,-0.5788975],"name":"mag"},{"translation":[0.389386875,0.39472312499999995,-1.20459],"name":"Bolt"},{"name":"c96","children":[0,1]},{"translation":[0.375,-0.6875,0],"name":"RightHand"},{"translation":[-0.375,0.875,-0.75],"name":"R","children":[3]},{"translation":[-0.375,-0.6875,0],"name":"LeftHand"},{"translation":[0.375,0.875,-0.75],"name":"l","children":[5]},{"translation":[0.5,0.3125,1.25],"name":"bone","children":[2,4,6]},{"translation":[0,0.0625,0.9375],"name":"camera","mesh":0},{"translation":[0.125,1,1.9375],"name":"bone2","children":[8]},{"children":[7,9]}],"bufferViews":[{"buffer":0,"byteOffset":0,"byteLength":288,"target":34962,"byteStride":12},{"buffer":0,"byteOffset":288,"byteLength":288,"target":34962,"byteStride":12},{"buffer":0,"byteOffset":576,"byteLength":192,"target":34962,"byteStride":8},{"buffer":0,"byteOffset":768,"byteLength":72,"target":34963},{"buffer":0,"byteOffset":840,"byteLength":52},{"buffer":0,"byteOffset":892,"byteLength":208},{"buffer":0,"byteOffset":1100,"byteLength":40},{"buffer":0,"byteOffset":1140,"byteLength":120},{"buffer":0,"byteOffset":1260,"byteLength":4},{"buffer":0,"byteOffset":1264,"byteLength":16},{"buffer":0,"byteOffset":1280,"byteLength":4},{"buffer":0,"byteOffset":1284,"byteLength":12},{"buffer":0,"byteOffset":1296,"byteLength":4},{"buffer":0,"byteOffset":1300,"byteLength":12},{"buffer":0,"byteOffset":1312,"byteLength":4},{"buffer":0,"byteOffset":1316,"byteLength":16},{"buffer":0,"byteOffset":1332,"byteLength":4},{"buffer":0,"byteOffset":1336,"byteLength":12},{"buffer":0,"byteOffset":1348,"byteLength":4},{"buffer":0,"byteOffset":1352,"byteLength":12}],"buffers":[{"byteLength":1364,"uri":"data:application/octet-stream;base64,"}],"accessors":[{"bufferView":0,"componentType":5126,"count":24,"max":[0.07500000298023224,0.04062499850988388,0],"min":[-0.07500000298023224,-0.04062499850988388,-0.0625],"type":"VEC3"},{"bufferView":1,"componentType":5126,"count":24,"max":[1,1,1],"min":[-1,-1,-1],"type":"VEC3"},{"bufferView":2,"componentType":5126,"count":24,"max":[1,1],"min":[0,0],"type":"VEC2"},{"bufferView":3,"componentType":5123,"count":36,"max":[23],"min":[0],"type":"SCALAR"},{"bufferView":4,"componentType":5126,"count":13,"max":[0.75],"min":[0],"type":"SCALAR"},{"bufferView":5,"componentType":5126,"count":13,"max":[0.2745101749897003,0.12068329751491547,0.13813573122024536,1],"min":[-0.013708177022635937,-0.0007521638181060553,-0.008726535364985466,0.9528698921203613],"type":"VEC4"},{"bufferView":6,"componentType":5126,"count":10,"max":[0.699999988079071],"min":[0],"type":"SCALAR"},{"bufferView":7,"componentType":5126,"count":10,"max":[1.037500023841858,0.3125,1.899999976158142],"min":[0.49291089177131653,-1.46875,1.25],"type":"VEC3"},{"bufferView":8,"componentType":5126,"count":1,"max":[0],"min":[0],"type":"SCALAR"},{"bufferView":9,"componentType":5126,"count":1,"max":[-0.012918603606522083,0.740105390548706,-0.6722643971443176,-0.011734419502317905],"min":[-0.012918603606522083,0.740105390548706,-0.6722643971443176,-0.011734419502317905],"type":"VEC4"},{"bufferView":10,"componentType":5126,"count":1,"max":[0],"min":[0],"type":"SCALAR"},{"bufferView":11,"componentType":5126,"count":1,"max":[0.07500000298023224,-0.04374999925494194,-0.26875001192092896],"min":[0.07500000298023224,-0.04374999925494194,-0.26875001192092896],"type":"VEC3"},{"bufferView":12,"componentType":5126,"count":1,"max":[0],"min":[0],"type":"SCALAR"},{"bufferView":13,"componentType":5126,"count":1,"max":[1.75,2,1.75],"min":[1.75,2,1.75],"type":"VEC3"},{"bufferView":14,"componentType":5126,"count":1,"max":[0],"min":[0],"type":"SCALAR"},{"bufferView":15,"componentType":5126,"count":1,"max":[-4.329780301713277e-17,-0.7071067690849304,0.7071067690849304,4.329780301713277e-17],"min":[-4.329780301713277e-17,-0.7071067690849304,0.7071067690849304,4.329780301713277e-17],"type":"VEC4"},{"bufferView":16,"componentType":5126,"count":1,"max":[0],"min":[0],"type":"SCALAR"},{"bufferView":17,"componentType":5126,"count":1,"max":[-1.125,-1.1875,0.6875],"min":[-1.125,-1.1875,0.6875],"type":"VEC3"},{"bufferView":18,"componentType":5126,"count":1,"max":[0],"min":[0],"type":"SCALAR"},{"bufferView":19,"componentType":5126,"count":1,"max":[1.75,2,1.75],"min":[1.75,2,1.75],"type":"VEC3"}],"materials":[{"pbrMetallicRoughness":{"baseColorFactor":[0.28627450980392155,0.3137254901960784,0.3803921568627451,1],"metallicFactor":0,"roughnessFactor":0.9},"extensions":{"KHR_materials_unlit":{}}}],"meshes":[{"primitives":[{"mode":4,"attributes":{"POSITION":0,"NORMAL":1,"TEXCOORD_0":2},"indices":3,"material":0}]}],"animations":[{"name":"draw","samplers":[{"input":4,"output":5,"interpolation":"LINEAR"},{"input":6,"output":7,"interpolation":"LINEAR"},{"input":8,"output":9,"interpolation":"LINEAR"},{"input":10,"output":11,"interpolation":"LINEAR"},{"input":12,"output":13,"interpolation":"LINEAR"},{"input":14,"output":15,"interpolation":"LINEAR"},{"input":16,"output":17,"interpolation":"LINEAR"},{"input":18,"output":19,"interpolation":"LINEAR"}],"channels":[{"sampler":0,"target":{"node":7,"path":"rotation"}},{"sampler":1,"target":{"node":7,"path":"translation"}},{"sampler":2,"target":{"node":4,"path":"rotation"}},{"sampler":3,"target":{"node":4,"path":"translation"}},{"sampler":4,"target":{"node":4,"path":"scale"}},{"sampler":5,"target":{"node":6,"path":"rotation"}},{"sampler":6,"target":{"node":6,"path":"translation"}},{"sampler":7,"target":{"node":6,"path":"scale"}}]}],"extensionsUsed":["KHR_materials_unlit"]}