{"asset":{"version":"2.0","generator":"Blockbench 4.8.3 glTF exporter"},"scenes":[{"nodes":[10],"name":"blockbench_export"}],"scene":0,"nodes":[{"translation":[-0.00803124999999999,0.19137562500000005,-0.5788975],"name":"mag"},{"translation":[0.389386875,0.39472312499999995,-1.20459],"name":"Bolt"},{"name":"c96","children":[0,1]},{"translation":[0.375,-0.6875,0],"name":"RightHand"},{"translation":[-0.375,0.875,-0.75],"name":"R","children":[3]},{"translation":[-0.375,-0.6875,0],"name":"LeftHand"},{"translation":[0.375,0.875,-0.75],"name":"l","children":[5]},{"translation":[0.5,0.3125,1.25],"name":"bone","children":[2,4,6]},{"translation":[0,0.0625,0.9375],"name":"camera","mesh":0},{"translation":[0.125,1,1.9375],"name":"bone2","children":[8]},{"children":[7,9]}],"bufferViews":[{"buffer":0,"byteOffset":0,"byteLength":288,"target":34962,"byteStride":12},{"buffer":0,"byteOffset":288,"byteLength":288,"target":34962,"byteStride":12},{"buffer":0,"byteOffset":576,"byteLength":192,"target":34962,"byteStride":8},{"buffer":0,"byteOffset":768,"byteLength":72,"target":34963},{"buffer":0,"byteOffset":840,"byteLength":20},{"buffer":0,"byteOffset":860,"byteLength":80},{"buffer":0,"byteOffset":940,"byteLength":20},{"buffer":0,"byteOffset":960,"byteLength":60},{"buffer":0,"byteOffset":1020,"byteLength":4},{"buffer":0,"byteOffset":1024,"byteLength":12},{"buffer":0,"byteOffset":1036,"byteLength":280},{"buffer":0,"byteOffset":1316,"byteLength":1120},{"buffer":0,"byteOffset":2436,"byteLength":20},{"buffer":0,"byteOffset":2456,"byteLength":60},{"buffer":0,"byteOffset":2516,"byteLength":4},{"buffer":0,"byteOffset":2520,"byteLength":12},{"buffer":0,"byteOffset":2532,"byteLength":296},{"buffer":0,"byteOffset":2828,"byteLength":1184},{"buffer":0,"byteOffset":4012,"byteLength":288},{"buffer":0,"byteOffset":4300,"byteLength":864}],"buffers":[{"byteLength":5164,"uri":"data:application/octet-stream;base64,"}],"accessors":[{"bufferView":0,"componentType":5126,"count":24,"max":[0.07500000298023224,0.04062499850988388,0],"min":[-0.07500000298023224,-0.04062499850988388,-0.0625],"type":"VEC3"},{"bufferView":1,"componentType":5126,"count":24,"max":[1,1,1],"min":[-1,-1,-1],"type":"VEC3"},{"bufferView":2,"componentType":5126,"count":24,"max":[1,1],"min":[0,0],"type":"VEC2"},{"bufferView":3,"componentType":5123,"count":36,"max":[23],"min":[0],"type":"SCALAR"},{"bufferView":4,"componentType":5126,"count":5,"max":[2.5],"min":[0],"type":"SCALAR"},{"bufferView":5,"componentType":5126,"count":5,"max":[0.01056737918406725,0.740105390548706,-0.6722643971443176,-0.011734419502317905],"min":[-0.012918603606522083,0.7392255663871765,-0.6723266243934631,-0.03756079450249672],"type":"VEC4"},{"bufferView":6,"componentType":5126,"count":5,"max":[2.5],"min":[0],"type":"SCALAR"},{"bufferView":7,"componentType":5126,"count":5,"max":[0.22499999403953552,-0.04374999925494194,-0.26875001192092896],"min":[0.03750000149011612,-0.04374999925494194,-0.26875001192092896],"type":"VEC3"},{"bufferView":8,"componentType":5126,"count":1,"max":[0],"min":[0],"type":"SCALAR"},{"bufferView":9,"componentType":5126,"count":1,"max":[1.75,2,1.75],"min":[1.75,2,1.75],"type":"VEC3"},{"bufferView":10,"componentType":5126,"count":70,"max":[4.300000190734863],"min":[0],"type":"SCALAR"},{"bufferView":11,"componentType":5126,"count":70,"max":[-4.329780301713277e-17,0.19466589391231537,0.7080336809158325,0.46862658858299255],"min":[-0.7125725746154785,-0.8784086108207703,0.32363906502723694,4.329780301713277e-17],"type":"VEC4"},{"bufferView":12,"componentType":5126,"count":5,"max":[4.300000190734863],"min":[0],"type":"SCALAR"},{"bufferView":13,"componentType":5126,"count":5,"max":[-0.5025668740272522,1.3971843719482422,1.705095648765564],"min":[-1.125,-1.1875,0.6875],"type":"VEC3"},{"bufferView":14,"componentType":5126,"count":1,"max":[0],"min":[0],"type":"SCALAR"},{"bufferView":15,"componentType":5126,"count":1,"max":[1.75,2,1.75],"min":[1.75,2,1.75],"type":"VEC3"},{"bufferView":16,"componentType":5126,"count":74,"max":[4.550000190734863],"min":[0],"type":"SCALAR"},{"bufferView":17,"componentType":5126,"count":74,"max":[0.4699258804321289,0.3699195384979248,0.5448917746543884,1],"min":[0,-0.1932261735200882,-0.3130156397819519,0.6701464056968689],"type":"VEC4"},{"bufferView":18,"componentType":5126,"count":72,"max":[4.550000190734863],"min":[0],"type":"SCALAR"},{"bufferView":19,"componentType":5126,"count":72,"max":[0.501171886920929,0.6753472089767456,1.4107812643051147],"min":[0.26249998807907104,0.24812500178813934,1.248437523841858],"type":"VEC3"}],"materials":[{"pbrMetallicRoughness":{"baseColorFactor":[0.28627450980392155,0.3137254901960784,0.3803921568627451,1],"metallicFactor":0,"roughnessFactor":0.9},"extensions":{"KHR_materials_unlit":{}}}],"meshes":[{"primitives":[{"mode":4,"attributes":{"POSITION":0,"NORMAL":1,"TEXCOORD_0":2},"indices":3,"material":0}]}],"animations":[{"name":"inspect","samplers":[{"input":4,"output":5,"interpolation":"LINEAR"},{"input":6,"output":7,"interpolation":"LINEAR"},{"input":8,"output":9,"interpolation":"LINEAR"},{"input":10,"output":11,"interpolation":"LINEAR"},{"input":12,"output":13,"interpolation":"LINEAR"},{"input":14,"output":15,"interpolation":"LINEAR"},{"input":16,"output":17,"interpolation":"LINEAR"},{"input":18,"output":19,"interpolation":"LINEAR"}],"channels":[{"sampler":0,"target":{"node":4,"path":"rotation"}},{"sampler":1,"target":{"node":4,"path":"translation"}},{"sampler":2,"target":{"node":4,"path":"scale"}},{"sampler":3,"target":{"node":6,"path":"rotation"}},{"sampler":4,"target":{"node":6,"path":"translation"}},{"sampler":5,"target":{"node":6,"path":"scale"}},{"sampler":6,"target":{"node":7,"path":"rotation"}},{"sampler":7,"target":{"node":7,"path":"translation"}}]}],"extensionsUsed":["KHR_materials_unlit"]}