{"asset":{"version":"2.0","generator":"Blockbench 4.8.3 glTF exporter"},"scenes":[{"nodes":[10],"name":"blockbench_export"}],"scene":0,"nodes":[{"translation":[-0.00803124999999999,0.19137562500000005,-0.5788975],"name":"mag"},{"translation":[0.389386875,0.39472312499999995,-1.20459],"name":"Bolt"},{"name":"c96","children":[0,1]},{"translation":[0.375,-0.6875,0],"name":"RightHand"},{"translation":[-0.375,0.875,-0.75],"name":"R","children":[3]},{"translation":[-0.375,-0.6875,0],"name":"LeftHand"},{"translation":[0.375,0.875,-0.75],"name":"l","children":[5]},{"translation":[0.5,0.3125,1.25],"name":"bone","children":[2,4,6]},{"translation":[0,0.0625,0.9375],"name":"camera","mesh":0},{"translation":[0.125,1,1.9375],"name":"bone2","children":[8]},{"children":[7,9]}],"bufferViews":[{"buffer":0,"byteOffset":0,"byteLength":288,"target":34962,"byteStride":12},{"buffer":0,"byteOffset":288,"byteLength":288,"target":34962,"byteStride":12},{"buffer":0,"byteOffset":576,"byteLength":192,"target":34962,"byteStride":8},{"buffer":0,"byteOffset":768,"byteLength":72,"target":34963},{"buffer":0,"byteOffset":840,"byteLength":192},{"buffer":0,"byteOffset":1032,"byteLength":768},{"buffer":0,"byteOffset":1800,"byteLength":184},{"buffer":0,"byteOffset":1984,"byteLength":552},{"buffer":0,"byteOffset":2536,"byteLength":72},{"buffer":0,"byteOffset":2608,"byteLength":288},{"buffer":0,"byteOffset":2896,"byteLength":96},{"buffer":0,"byteOffset":2992,"byteLength":288},{"buffer":0,"byteOffset":3280,"byteLength":4},{"buffer":0,"byteOffset":3284,"byteLength":16},{"buffer":0,"byteOffset":3300,"byteLength":4},{"buffer":0,"byteOffset":3304,"byteLength":12},{"buffer":0,"byteOffset":3316,"byteLength":4},{"buffer":0,"byteOffset":3320,"byteLength":12},{"buffer":0,"byteOffset":3332,"byteLength":48},{"buffer":0,"byteOffset":3380,"byteLength":192},{"buffer":0,"byteOffset":3572,"byteLength":152},{"buffer":0,"byteOffset":3724,"byteLength":456},{"buffer":0,"byteOffset":4180,"byteLength":4},{"buffer":0,"byteOffset":4184,"byteLength":12},{"buffer":0,"byteOffset":4196,"byteLength":20},{"buffer":0,"byteOffset":4216,"byteLength":60}],"buffers":[{"byteLength":4276,"uri":"data:application/octet-stream;base64,"}],"accessors":[{"bufferView":0,"componentType":5126,"count":24,"max":[0.07500000298023224,0.04062499850988388,0],"min":[-0.07500000298023224,-0.04062499850988388,-0.0625],"type":"VEC3"},{"bufferView":1,"componentType":5126,"count":24,"max":[1,1,1],"min":[-1,-1,-1],"type":"VEC3"},{"bufferView":2,"componentType":5126,"count":24,"max":[1,1],"min":[0,0],"type":"VEC2"},{"bufferView":3,"componentType":5123,"count":36,"max":[23],"min":[0],"type":"SCALAR"},{"bufferView":4,"componentType":5126,"count":48,"max":[2.8499999046325684],"min":[0],"type":"SCALAR"},{"bufferView":5,"componentType":5126,"count":48,"max":[0.22864612936973572,0.48506614565849304,0.5183374285697937,1],"min":[-0.0026917532086372375,-0.06683569401502609,-0.49007365107536316,0.6905902028083801],"type":"VEC4"},{"bufferView":6,"componentType":5126,"count":46,"max":[2.8499999046325684],"min":[0],"type":"SCALAR"},{"bufferView":7,"componentType":5126,"count":46,"max":[0.9430980682373047,0.32021138072013855,1.6265627145767212],"min":[0.30125001072883606,-0.03375000134110451,1.100000023841858],"type":"VEC3"},{"bufferView":8,"componentType":5126,"count":18,"max":[1.5],"min":[0],"type":"SCALAR"},{"bufferView":9,"componentType":5126,"count":18,"max":[0.6704041957855225,0.25475844740867615,0.9970415830612183,1],"min":[-0.053081952035427094,-0.2040952891111374,-0.18114876747131348,-0.1554413139820099],"type":"VEC4"},{"bufferView":10,"componentType":5126,"count":24,"max":[1.5],"min":[0],"type":"SCALAR"},{"bufferView":11,"componentType":5126,"count":24,"max":[3.2274413108825684,0.21916142106056213,1.9942574501037598],"min":[-0.07444062829017639,-2.043638229370117,-0.6587537527084351],"type":"VEC3"},{"bufferView":12,"componentType":5126,"count":1,"max":[0],"min":[0],"type":"SCALAR"},{"bufferView":13,"componentType":5126,"count":1,"max":[-0.012918603606522083,0.740105390548706,-0.6722643971443176,-0.011734419502317905],"min":[-0.012918603606522083,0.740105390548706,-0.6722643971443176,-0.011734419502317905],"type":"VEC4"},{"bufferView":14,"componentType":5126,"count":1,"max":[0],"min":[0],"type":"SCALAR"},{"bufferView":15,"componentType":5126,"count":1,"max":[0.07500000298023224,-0.04374999925494194,-0.26875001192092896],"min":[0.07500000298023224,-0.04374999925494194,-0.26875001192092896],"type":"VEC3"},{"bufferView":16,"componentType":5126,"count":1,"max":[0],"min":[0],"type":"SCALAR"},{"bufferView":17,"componentType":5126,"count":1,"max":[1.75,2,1.75],"min":[1.75,2,1.75],"type":"VEC3"},{"bufferView":18,"componentType":5126,"count":12,"max":[2.450000047683716],"min":[0],"type":"SCALAR"},{"bufferView":19,"componentType":5126,"count":12,"max":[0.2692182958126068,-0.2250230461359024,0.7071067690849304,0.3743443191051483],"min":[-0.4854118824005127,-0.7437441945075989,0.131315216422081,-0.9147072434425354],"type":"VEC4"},{"bufferView":20,"componentType":5126,"count":38,"max":[2.450000047683716],"min":[0],"type":"SCALAR"},{"bufferView":21,"componentType":5126,"count":38,"max":[0.49289312958717346,0.4969187378883362,0.9965624809265137],"min":[-1.125,-2.0952200889587402,-0.673606276512146],"type":"VEC3"},{"bufferView":22,"componentType":5126,"count":1,"max":[0],"min":[0],"type":"SCALAR"},{"bufferView":23,"componentType":5126,"count":1,"max":[1.75,2,1.75],"min":[1.75,2,1.75],"type":"VEC3"},{"bufferView":24,"componentType":5126,"count":5,"max":[2.299999952316284],"min":[2.0999999046325684],"type":"SCALAR"},{"bufferView":25,"componentType":5126,"count":5,"max":[0.3893868625164032,0.394723117351532,-0.9233400225639343],"min":[0.3893868625164032,0.394723117351532,-1.2045899629592896],"type":"VEC3"}],"materials":[{"pbrMetallicRoughness":{"baseColorFactor":[0.28627450980392155,0.3137254901960784,0.3803921568627451,1],"metallicFactor":0,"roughnessFactor":0.9},"extensions":{"KHR_materials_unlit":{}}}],"meshes":[{"primitives":[{"mode":4,"attributes":{"POSITION":0,"NORMAL":1,"TEXCOORD_0":2},"indices":3,"material":0}]}],"animations":[{"name":"reload_empty","samplers":[{"input":4,"output":5,"interpolation":"LINEAR"},{"input":6,"output":7,"interpolation":"LINEAR"},{"input":8,"output":9,"interpolation":"LINEAR"},{"input":10,"output":11,"interpolation":"LINEAR"},{"input":12,"output":13,"interpolation":"LINEAR"},{"input":14,"output":15,"interpolation":"LINEAR"},{"input":16,"output":17,"interpolation":"LINEAR"},{"input":18,"output":19,"interpolation":"LINEAR"},{"input":20,"output":21,"interpolation":"LINEAR"},{"input":22,"output":23,"interpolation":"LINEAR"},{"input":24,"output":25,"interpolation":"LINEAR"}],"channels":[{"sampler":0,"target":{"node":7,"path":"rotation"}},{"sampler":1,"target":{"node":7,"path":"translation"}},{"sampler":2,"target":{"node":0,"path":"rotation"}},{"sampler":3,"target":{"node":0,"path":"translation"}},{"sampler":4,"target":{"node":4,"path":"rotation"}},{"sampler":5,"target":{"node":4,"path":"translation"}},{"sampler":6,"target":{"node":4,"path":"scale"}},{"sampler":7,"target":{"node":6,"path":"rotation"}},{"sampler":8,"target":{"node":6,"path":"translation"}},{"sampler":9,"target":{"node":6,"path":"scale"}},{"sampler":10,"target":{"node":1,"path":"translation"}}]}],"extensionsUsed":["KHR_materials_unlit"]}