{"asset":{"version":"2.0","generator":"Blockbench 4.8.3 glTF exporter"},"scenes":[{"nodes":[10],"name":"blockbench_export"}],"scene":0,"nodes":[{"translation":[-0.00803124999999999,0.19137562500000005,-0.5788975],"name":"mag"},{"translation":[0.389386875,0.39472312499999995,-1.20459],"name":"Bolt"},{"name":"c96","children":[0,1]},{"translation":[0.375,-0.6875,0],"name":"RightHand"},{"translation":[-0.375,0.875,-0.75],"name":"R","children":[3]},{"translation":[-0.375,-0.6875,0],"name":"LeftHand"},{"translation":[0.375,0.875,-0.75],"name":"l","children":[5]},{"translation":[0.5,0.3125,1.25],"name":"bone","children":[2,4,6]},{"translation":[0,0.0625,0.9375],"name":"camera","mesh":0},{"translation":[0.125,1,1.9375],"name":"bone2","children":[8]},{"children":[7,9]}],"bufferViews":[{"buffer":0,"byteOffset":0,"byteLength":288,"target":34962,"byteStride":12},{"buffer":0,"byteOffset":288,"byteLength":288,"target":34962,"byteStride":12},{"buffer":0,"byteOffset":576,"byteLength":192,"target":34962,"byteStride":8},{"buffer":0,"byteOffset":768,"byteLength":72,"target":34963},{"buffer":0,"byteOffset":840,"byteLength":140},{"buffer":0,"byteOffset":980,"byteLength":560},{"buffer":0,"byteOffset":1540,"byteLength":148},{"buffer":0,"byteOffset":1688,"byteLength":444},{"buffer":0,"byteOffset":2132,"byteLength":52},{"buffer":0,"byteOffset":2184,"byteLength":208},{"buffer":0,"byteOffset":2392,"byteLength":88},{"buffer":0,"byteOffset":2480,"byteLength":264},{"buffer":0,"byteOffset":2744,"byteLength":4},{"buffer":0,"byteOffset":2748,"byteLength":16},{"buffer":0,"byteOffset":2764,"byteLength":4},{"buffer":0,"byteOffset":2768,"byteLength":12},{"buffer":0,"byteOffset":2780,"byteLength":4},{"buffer":0,"byteOffset":2784,"byteLength":12},{"buffer":0,"byteOffset":2796,"byteLength":144},{"buffer":0,"byteOffset":2940,"byteLength":576},{"buffer":0,"byteOffset":3516,"byteLength":140},{"buffer":0,"byteOffset":3656,"byteLength":420},{"buffer":0,"byteOffset":4076,"byteLength":4},{"buffer":0,"byteOffset":4080,"byteLength":12}],"buffers":[{"byteLength":4092,"uri":"data:application/octet-stream;base64,"}],"accessors":[{"bufferView":0,"componentType":5126,"count":24,"max":[0.07500000298023224,0.04062499850988388,0],"min":[-0.07500000298023224,-0.04062499850988388,-0.0625],"type":"VEC3"},{"bufferView":1,"componentType":5126,"count":24,"max":[1,1,1],"min":[-1,-1,-1],"type":"VEC3"},{"bufferView":2,"componentType":5126,"count":24,"max":[1,1],"min":[0,0],"type":"VEC2"},{"bufferView":3,"componentType":5123,"count":36,"max":[23],"min":[0],"type":"SCALAR"},{"bufferView":4,"componentType":5126,"count":35,"max":[2.25],"min":[0],"type":"SCALAR"},{"bufferView":5,"componentType":5126,"count":35,"max":[0.2045365273952484,0.36042484641075134,0.009929305873811245,1],"min":[-0.01410433929413557,-0.008829711005091667,-0.332332044839859,0.8604378700256348],"type":"VEC4"},{"bufferView":6,"componentType":5126,"count":37,"max":[2.25],"min":[0],"type":"SCALAR"},{"bufferView":7,"componentType":5126,"count":37,"max":[0.9293749928474426,0.3543750047683716,1.5610450506210327],"min":[0.5,0.17406250536441803,1.2465685606002808],"type":"VEC3"},{"bufferView":8,"componentType":5126,"count":13,"max":[1.649999976158142],"min":[0],"type":"SCALAR"},{"bufferView":9,"componentType":5126,"count":13,"max":[0.5426806211471558,0.0014006507117301226,0,1],"min":[-0.03459171578288078,-0.24107547104358673,-0.3051585257053375,0.7444854974746704],"type":"VEC4"},{"bufferView":10,"componentType":5126,"count":22,"max":[1.649999976158142],"min":[0],"type":"SCALAR"},{"bufferView":11,"componentType":5126,"count":22,"max":[-0.008031249977648258,0.19137562811374664,0.554801881313324],"min":[-0.7445730566978455,-2.0755293369293213,-0.5788974761962891],"type":"VEC3"},{"bufferView":12,"componentType":5126,"count":1,"max":[0],"min":[0],"type":"SCALAR"},{"bufferView":13,"componentType":5126,"count":1,"max":[-0.012918603606522083,0.740105390548706,-0.6722643971443176,-0.011734419502317905],"min":[-0.012918603606522083,0.740105390548706,-0.6722643971443176,-0.011734419502317905],"type":"VEC4"},{"bufferView":14,"componentType":5126,"count":1,"max":[0],"min":[0],"type":"SCALAR"},{"bufferView":15,"componentType":5126,"count":1,"max":[0.07500000298023224,-0.04374999925494194,-0.26875001192092896],"min":[0.07500000298023224,-0.04374999925494194,-0.26875001192092896],"type":"VEC3"},{"bufferView":16,"componentType":5126,"count":1,"max":[0],"min":[0],"type":"SCALAR"},{"bufferView":17,"componentType":5126,"count":1,"max":[1.75,2,1.75],"min":[1.75,2,1.75],"type":"VEC3"},{"bufferView":18,"componentType":5126,"count":36,"max":[2],"min":[0],"type":"SCALAR"},{"bufferView":19,"componentType":5126,"count":36,"max":[0.14690198004245758,-0.31116783618927,0.7650716304779053,4.329780301713277e-17],"min":[-4.329780301713277e-17,-0.7071067690849304,0.3010255992412567,-0.89028000831604],"type":"VEC4"},{"bufferView":20,"componentType":5126,"count":35,"max":[2],"min":[0],"type":"SCALAR"},{"bufferView":21,"componentType":5126,"count":35,"max":[0.11562500149011612,-0.12892360985279083,0.6875],"min":[-1.125,-2.459092617034912,-0.7250000238418579],"type":"VEC3"},{"bufferView":22,"componentType":5126,"count":1,"max":[0],"min":[0],"type":"SCALAR"},{"bufferView":23,"componentType":5126,"count":1,"max":[1.75,2,1.75],"min":[1.75,2,1.75],"type":"VEC3"}],"materials":[{"pbrMetallicRoughness":{"baseColorFactor":[0.28627450980392155,0.3137254901960784,0.3803921568627451,1],"metallicFactor":0,"roughnessFactor":0.9},"extensions":{"KHR_materials_unlit":{}}}],"meshes":[{"primitives":[{"mode":4,"attributes":{"POSITION":0,"NORMAL":1,"TEXCOORD_0":2},"indices":3,"material":0}]}],"animations":[{"name":"reload_norm","samplers":[{"input":4,"output":5,"interpolation":"LINEAR"},{"input":6,"output":7,"interpolation":"LINEAR"},{"input":8,"output":9,"interpolation":"LINEAR"},{"input":10,"output":11,"interpolation":"LINEAR"},{"input":12,"output":13,"interpolation":"LINEAR"},{"input":14,"output":15,"interpolation":"LINEAR"},{"input":16,"output":17,"interpolation":"LINEAR"},{"input":18,"output":19,"interpolation":"LINEAR"},{"input":20,"output":21,"interpolation":"LINEAR"},{"input":22,"output":23,"interpolation":"LINEAR"}],"channels":[{"sampler":0,"target":{"node":7,"path":"rotation"}},{"sampler":1,"target":{"node":7,"path":"translation"}},{"sampler":2,"target":{"node":0,"path":"rotation"}},{"sampler":3,"target":{"node":0,"path":"translation"}},{"sampler":4,"target":{"node":4,"path":"rotation"}},{"sampler":5,"target":{"node":4,"path":"translation"}},{"sampler":6,"target":{"node":4,"path":"scale"}},{"sampler":7,"target":{"node":6,"path":"rotation"}},{"sampler":8,"target":{"node":6,"path":"translation"}},{"sampler":9,"target":{"node":6,"path":"scale"}}]}],"extensionsUsed":["KHR_materials_unlit"]}