{"asset":{"version":"2.0","generator":"Blockbench 4.9.4 glTF exporter"},"scenes":[{"nodes":[9],"name":"blockbench_export"}],"scene":0,"nodes":[{"translation":[0,0.15625,0],"name":"barrel_1"},{"name":"minigun","children":[0]},{"translation":[0.375,-0.6875,0],"name":"RightHand"},{"translation":[0.125,1.1875,0.5],"name":"R","children":[2]},{"translation":[0,-0.25,-0.5625],"name":"gunandR","children":[1,3]},{"translation":[-0.375,-0.6875,0],"name":"LeftHand"},{"translation":[0.875,0.9375,-0.0625],"name":"l","children":[5]},{"translation":[0,0.0625,0],"name":"bone2","children":[4,6]},{"translation":[0,0.1875,0.5625],"name":"bone4","children":[7]},{"children":[8]}],"animations":[{"name":"static","samplers":[{"input":0,"output":1,"interpolation":"LINEAR"},{"input":2,"output":3,"interpolation":"LINEAR"},{"input":4,"output":5,"interpolation":"LINEAR"},{"input":6,"output":7,"interpolation":"LINEAR"},{"input":8,"output":9,"interpolation":"LINEAR"},{"input":10,"output":11,"interpolation":"LINEAR"},{"input":12,"output":13,"interpolation":"LINEAR"}],"channels":[{"sampler":0,"target":{"node":6,"path":"rotation"}},{"sampler":1,"target":{"node":6,"path":"translation"}},{"sampler":2,"target":{"node":6,"path":"scale"}},{"sampler":3,"target":{"node":3,"path":"rotation"}},{"sampler":4,"target":{"node":3,"path":"translation"}},{"sampler":5,"target":{"node":3,"path":"scale"}},{"sampler":6,"target":{"node":8,"path":"rotation"}}]}],"bufferViews":[{"buffer":0,"byteOffset":0,"byteLength":4},{"buffer":0,"byteOffset":4,"byteLength":16},{"buffer":0,"byteOffset":20,"byteLength":4},{"buffer":0,"byteOffset":24,"byteLength":12},{"buffer":0,"byteOffset":36,"byteLength":4},{"buffer":0,"byteOffset":40,"byteLength":12},{"buffer":0,"byteOffset":52,"byteLength":8},{"buffer":0,"byteOffset":60,"byteLength":32},{"buffer":0,"byteOffset":92,"byteLength":4},{"buffer":0,"byteOffset":96,"byteLength":12},{"buffer":0,"byteOffset":108,"byteLength":4},{"buffer":0,"byteOffset":112,"byteLength":12},{"buffer":0,"byteOffset":124,"byteLength":4},{"buffer":0,"byteOffset":128,"byteLength":16}],"buffers":[{"byteLength":144,"uri":"data:application/octet-stream;base64,"}],"accessors":[{"bufferView":0,"componentType":5126,"count":1,"max":[0],"min":[0],"type":"SCALAR"},{"bufferView":1,"componentType":5126,"count":1,"max":[0.6201559901237488,0.5442474484443665,-0.42962446808815,-0.36691153049468994],"min":[0.6201559901237488,0.5442474484443665,-0.42962446808815,-0.36691153049468994],"type":"VEC4"},{"bufferView":2,"componentType":5126,"count":1,"max":[0],"min":[0],"type":"SCALAR"},{"bufferView":3,"componentType":5126,"count":1,"max":[-0.01875000074505806,0.45625001192092896,-0.14374999701976776],"min":[-0.01875000074505806,0.45625001192092896,-0.14374999701976776],"type":"VEC3"},{"bufferView":4,"componentType":5126,"count":1,"max":[0],"min":[0],"type":"SCALAR"},{"bufferView":5,"componentType":5126,"count":1,"max":[1,1.5,1],"min":[1,1.5,1],"type":"VEC3"},{"bufferView":6,"componentType":5126,"count":2,"max":[0],"min":[0],"type":"SCALAR"},{"bufferView":7,"componentType":5126,"count":2,"max":[0,0.5526847243309021,0,1],"min":[-0.08506631851196289,0,-0.8193888068199158,0.12611600756645203],"type":"VEC4"},{"bufferView":8,"componentType":5126,"count":1,"max":[0],"min":[0],"type":"SCALAR"},{"bufferView":9,"componentType":5126,"count":1,"max":[0.03125,0.3687500059604645,1.2312500476837158],"min":[0.03125,0.3687500059604645,1.2312500476837158],"type":"VEC3"},{"bufferView":10,"componentType":5126,"count":1,"max":[0],"min":[0],"type":"SCALAR"},{"bufferView":11,"componentType":5126,"count":1,"max":[1,1.5,1],"min":[1,1.5,1],"type":"VEC3"},{"bufferView":12,"componentType":5126,"count":1,"max":[0],"min":[0],"type":"SCALAR"},{"bufferView":13,"componentType":5126,"count":1,"max":[0.04357787221670151,0.0019026509253308177,0.04357787221670151,0.9980973601341248],"min":[0.04357787221670151,0.0019026509253308177,0.04357787221670151,0.9980973601341248],"type":"VEC4"}]}