{"asset":{"version":"2.0","generator":"Blockbench 4.9.4 glTF exporter"},"scenes":[{"nodes":[9],"name":"blockbench_export"}],"scene":0,"nodes":[{"translation":[0,0.15625,0],"name":"barrel_1"},{"name":"minigun","children":[0]},{"translation":[0.375,-0.6875,0],"name":"RightHand"},{"translation":[0.125,1.1875,0.5],"name":"R","children":[2]},{"translation":[0,-0.25,-0.5625],"name":"gunandR","children":[1,3]},{"translation":[-0.375,-0.6875,0],"name":"LeftHand"},{"translation":[0.875,0.9375,-0.0625],"name":"l","children":[5]},{"translation":[0,0.0625,0],"name":"bone2","children":[4,6]},{"translation":[0,0.1875,0.5625],"name":"bone4","children":[7]},{"children":[8]}],"animations":[{"name":"draw","samplers":[{"input":0,"output":1,"interpolation":"LINEAR"},{"input":2,"output":3,"interpolation":"LINEAR"},{"input":4,"output":5,"interpolation":"LINEAR"},{"input":6,"output":7,"interpolation":"LINEAR"},{"input":8,"output":9,"interpolation":"LINEAR"},{"input":10,"output":11,"interpolation":"LINEAR"},{"input":12,"output":13,"interpolation":"LINEAR"},{"input":14,"output":15,"interpolation":"LINEAR"},{"input":16,"output":17,"interpolation":"LINEAR"}],"channels":[{"sampler":0,"target":{"node":8,"path":"rotation"}},{"sampler":1,"target":{"node":6,"path":"rotation"}},{"sampler":2,"target":{"node":6,"path":"translation"}},{"sampler":3,"target":{"node":6,"path":"scale"}},{"sampler":4,"target":{"node":3,"path":"rotation"}},{"sampler":5,"target":{"node":3,"path":"translation"}},{"sampler":6,"target":{"node":3,"path":"scale"}},{"sampler":7,"target":{"node":7,"path":"rotation"}},{"sampler":8,"target":{"node":7,"path":"translation"}}]}],"bufferViews":[{"buffer":0,"byteOffset":0,"byteLength":4},{"buffer":0,"byteOffset":4,"byteLength":16},{"buffer":0,"byteOffset":20,"byteLength":96},{"buffer":0,"byteOffset":116,"byteLength":384},{"buffer":0,"byteOffset":500,"byteLength":12},{"buffer":0,"byteOffset":512,"byteLength":36},{"buffer":0,"byteOffset":548,"byteLength":4},{"buffer":0,"byteOffset":552,"byteLength":12},{"buffer":0,"byteOffset":564,"byteLength":4},{"buffer":0,"byteOffset":568,"byteLength":16},{"buffer":0,"byteOffset":584,"byteLength":4},{"buffer":0,"byteOffset":588,"byteLength":12},{"buffer":0,"byteOffset":600,"byteLength":4},{"buffer":0,"byteOffset":604,"byteLength":12},{"buffer":0,"byteOffset":616,"byteLength":104},{"buffer":0,"byteOffset":720,"byteLength":416},{"buffer":0,"byteOffset":1136,"byteLength":108},{"buffer":0,"byteOffset":1244,"byteLength":324}],"buffers":[{"byteLength":1568,"uri":"data:application/octet-stream;base64,"}],"accessors":[{"bufferView":0,"componentType":5126,"count":1,"max":[0],"min":[0],"type":"SCALAR"},{"bufferView":1,"componentType":5126,"count":1,"max":[0.04357787221670151,0.0019026509253308177,0.04357787221670151,0.9980973601341248],"min":[0.04357787221670151,0.0019026509253308177,0.04357787221670151,0.9980973601341248],"type":"VEC4"},{"bufferView":2,"componentType":5126,"count":24,"max":[1.2999999523162842],"min":[0],"type":"SCALAR"},{"bufferView":3,"componentType":5126,"count":24,"max":[0.7164129018783569,0.5489426255226135,-0.36287498474121094,-0.23907309770584106],"min":[0.6109697222709656,0.5102559924125671,-0.45554766058921814,-0.3777608573436737],"type":"VEC4"},{"bufferView":4,"componentType":5126,"count":3,"max":[1.2999999523162842],"min":[0],"type":"SCALAR"},{"bufferView":5,"componentType":5126,"count":3,"max":[-0.01875000074505806,0.45625001192092896,-0.14374999701976776],"min":[-0.01875000074505806,0.45625001192092896,-0.14374999701976776],"type":"VEC3"},{"bufferView":6,"componentType":5126,"count":1,"max":[0],"min":[0],"type":"SCALAR"},{"bufferView":7,"componentType":5126,"count":1,"max":[1,1.5,1],"min":[1,1.5,1],"type":"VEC3"},{"bufferView":8,"componentType":5126,"count":1,"max":[0],"min":[0],"type":"SCALAR"},{"bufferView":9,"componentType":5126,"count":1,"max":[-0.08506631851196289,0.5526847243309021,-0.8193888068199158,0.12611600756645203],"min":[-0.08506631851196289,0.5526847243309021,-0.8193888068199158,0.12611600756645203],"type":"VEC4"},{"bufferView":10,"componentType":5126,"count":1,"max":[0],"min":[0],"type":"SCALAR"},{"bufferView":11,"componentType":5126,"count":1,"max":[0.03125,0.3687500059604645,1.2312500476837158],"min":[0.03125,0.3687500059604645,1.2312500476837158],"type":"VEC3"},{"bufferView":12,"componentType":5126,"count":1,"max":[0],"min":[0],"type":"SCALAR"},{"bufferView":13,"componentType":5126,"count":1,"max":[1,1.5,1],"min":[1,1.5,1],"type":"VEC3"},{"bufferView":14,"componentType":5126,"count":26,"max":[1.600000023841858],"min":[0],"type":"SCALAR"},{"bufferView":15,"componentType":5126,"count":26,"max":[0.048856694251298904,0.1426382064819336,0.05171694606542587,1],"min":[-0.23920880258083344,-0.0015784052666276693,-0.0033138596918433905,0.9647967219352722],"type":"VEC4"},{"bufferView":16,"componentType":5126,"count":27,"max":[1.600000023841858],"min":[0],"type":"SCALAR"},{"bufferView":17,"componentType":5126,"count":27,"max":[0.42500001192092896,0.1046360582113266,0.41874998807907104],"min":[-0.0023408029228448868,-0.44999998807907104,-0.00040509257814846933],"type":"VEC3"}]}