{"asset":{"version":"2.0","generator":"Blockbench 4.9.4 glTF exporter"},"scenes":[{"nodes":[9],"name":"blockbench_export"}],"scene":0,"nodes":[{"translation":[0,0.15625,0],"name":"barrel_1"},{"name":"minigun","children":[0]},{"translation":[0.375,-0.6875,0],"name":"RightHand"},{"translation":[0.125,1.1875,0.5],"name":"R","children":[2]},{"translation":[0,-0.25,-0.5625],"name":"gunandR","children":[1,3]},{"translation":[-0.375,-0.6875,0],"name":"LeftHand"},{"translation":[0.875,0.9375,-0.0625],"name":"l","children":[5]},{"translation":[0,0.0625,0],"name":"bone2","children":[4,6]},{"translation":[0,0.1875,0.5625],"name":"bone4","children":[7]},{"children":[8]}],"animations":[{"name":"inspect","samplers":[{"input":0,"output":1,"interpolation":"LINEAR"},{"input":2,"output":3,"interpolation":"LINEAR"},{"input":4,"output":5,"interpolation":"LINEAR"},{"input":6,"output":7,"interpolation":"LINEAR"},{"input":8,"output":9,"interpolation":"LINEAR"},{"input":10,"output":11,"interpolation":"LINEAR"},{"input":12,"output":13,"interpolation":"LINEAR"},{"input":14,"output":15,"interpolation":"LINEAR"},{"input":16,"output":17,"interpolation":"LINEAR"},{"input":18,"output":19,"interpolation":"LINEAR"}],"channels":[{"sampler":0,"target":{"node":8,"path":"rotation"}},{"sampler":1,"target":{"node":6,"path":"rotation"}},{"sampler":2,"target":{"node":6,"path":"translation"}},{"sampler":3,"target":{"node":6,"path":"scale"}},{"sampler":4,"target":{"node":3,"path":"rotation"}},{"sampler":5,"target":{"node":3,"path":"translation"}},{"sampler":6,"target":{"node":3,"path":"scale"}},{"sampler":7,"target":{"node":7,"path":"rotation"}},{"sampler":8,"target":{"node":7,"path":"translation"}},{"sampler":9,"target":{"node":0,"path":"rotation"}}]}],"bufferViews":[{"buffer":0,"byteOffset":0,"byteLength":4},{"buffer":0,"byteOffset":4,"byteLength":16},{"buffer":0,"byteOffset":20,"byteLength":68},{"buffer":0,"byteOffset":88,"byteLength":272},{"buffer":0,"byteOffset":360,"byteLength":72},{"buffer":0,"byteOffset":432,"byteLength":216},{"buffer":0,"byteOffset":648,"byteLength":4},{"buffer":0,"byteOffset":652,"byteLength":12},{"buffer":0,"byteOffset":664,"byteLength":64},{"buffer":0,"byteOffset":728,"byteLength":256},{"buffer":0,"byteOffset":984,"byteLength":40},{"buffer":0,"byteOffset":1024,"byteLength":120},{"buffer":0,"byteOffset":1144,"byteLength":4},{"buffer":0,"byteOffset":1148,"byteLength":12},{"buffer":0,"byteOffset":1160,"byteLength":828},{"buffer":0,"byteOffset":1988,"byteLength":3312},{"buffer":0,"byteOffset":5300,"byteLength":812},{"buffer":0,"byteOffset":6112,"byteLength":2436},{"buffer":0,"byteOffset":8548,"byteLength":192},{"buffer":0,"byteOffset":8740,"byteLength":768}],"buffers":[{"byteLength":9508,"uri":"data:application/octet-stream;base64,"}],"accessors":[{"bufferView":0,"componentType":5126,"count":1,"max":[0],"min":[0],"type":"SCALAR"},{"bufferView":1,"componentType":5126,"count":1,"max":[0.04357787221670151,0.0019026509253308177,0.04357787221670151,0.9980973601341248],"min":[0.04357787221670151,0.0019026509253308177,0.04357787221670151,0.9980973601341248],"type":"VEC4"},{"bufferView":2,"componentType":5126,"count":17,"max":[12.25],"min":[0],"type":"SCALAR"},{"bufferView":3,"componentType":5126,"count":17,"max":[0.6675628423690796,0.6935885548591614,-0.34445592761039734,0.4726869463920593],"min":[-0.5713663101196289,0.04705612361431122,-0.7890903353691101,-0.36691153049468994],"type":"VEC4"},{"bufferView":4,"componentType":5126,"count":18,"max":[12.25],"min":[0],"type":"SCALAR"},{"bufferView":5,"componentType":5126,"count":18,"max":[-0.01875000074505806,0.6112499833106995,0.5031912326812744],"min":[-0.4740937352180481,-0.5933037400245667,-0.1542281210422516],"type":"VEC3"},{"bufferView":6,"componentType":5126,"count":1,"max":[0],"min":[0],"type":"SCALAR"},{"bufferView":7,"componentType":5126,"count":1,"max":[1,1.5,1],"min":[1,1.5,1],"type":"VEC3"},{"bufferView":8,"componentType":5126,"count":16,"max":[11.899999618530273],"min":[0],"type":"SCALAR"},{"bufferView":9,"componentType":5126,"count":16,"max":[-0.08506631851196289,0.5948677659034729,-0.2861969769001007,0.5710407495498657],"min":[-0.6176711916923523,0.37551507353782654,-0.8193888068199158,0.12611600756645203],"type":"VEC4"},{"bufferView":10,"componentType":5126,"count":10,"max":[11.899999618530273],"min":[0],"type":"SCALAR"},{"bufferView":11,"componentType":5126,"count":10,"max":[0.13562500476837158,0.7418749928474426,1.2312500476837158],"min":[0.03125,0.3687500059604645,0.44046688079833984],"type":"VEC3"},{"bufferView":12,"componentType":5126,"count":1,"max":[0],"min":[0],"type":"SCALAR"},{"bufferView":13,"componentType":5126,"count":1,"max":[1,1.5,1],"min":[1,1.5,1],"type":"VEC3"},{"bufferView":14,"componentType":5126,"count":207,"max":[13.100000381469727],"min":[0],"type":"SCALAR"},{"bufferView":15,"componentType":5126,"count":207,"max":[0.5519120693206787,0.1807587593793869,0.443826287984848,1],"min":[-0.033188316971063614,-0.09965802729129791,-0.43284890055656433,0.7791298627853394],"type":"VEC4"},{"bufferView":16,"componentType":5126,"count":203,"max":[13.100000381469727],"min":[0],"type":"SCALAR"},{"bufferView":17,"componentType":5126,"count":203,"max":[0.024796875193715096,0.5884659886360168,0.016881396993994713],"min":[-0.15530063211917877,-0.14281250536441803,-0.38615021109580994],"type":"VEC3"},{"bufferView":18,"componentType":5126,"count":48,"max":[5.699999809265137],"min":[0],"type":"SCALAR"},{"bufferView":19,"componentType":5126,"count":48,"max":[0,0,0.9998098015785217,1],"min":[0,0,-0.9992763996124268,-0.9914525151252747],"type":"VEC4"}]}